<?xml version="1.0" standalone="no"?>
<!DOCTYPE svg PUBLIC "-//W3C//DTD SVG 20010904//EN"
 "http://www.w3.org/TR/2001/REC-SVG-20010904/DTD/svg10.dtd">
<svg version="1.0" xmlns="http://www.w3.org/2000/svg"
 width="700.000000pt" height="700.000000pt" viewBox="0 0 700.000000 700.000000"
 preserveAspectRatio="xMidYMid meet">
<metadata>
Created by potrace 1.11, written by Peter Selinger 2001-2013
</metadata>
<g transform="translate(0.000000,700.000000) scale(0.100000,-0.100000)"
fill="#000000" stroke="none">
<path d="M2817 6634 c-1 -1 -47 -4 -102 -8 -55 -3 -111 -8 -125 -10 -14 -3
-47 -7 -73 -11 -27 -3 -94 -17 -150 -30 -396 -95 -714 -271 -992 -550 -147
-146 -223 -242 -332 -416 -138 -221 -286 -589 -348 -869 -40 -179 -71 -369
-90 -555 -12 -122 -15 -163 -20 -309 -5 -141 -7 -153 -36 -215 -137 -291 -191
-609 -138 -818 84 -336 427 -617 974 -798 108 -36 225 -71 265 -79 14 -3 66
-15 115 -26 89 -20 269 -53 355 -65 25 -3 56 -8 70 -10 14 -2 57 -7 95 -11 39
-3 84 -8 100 -10 91 -12 280 -18 510 -18 301 0 425 7 685 39 19 3 58 7 85 10
28 4 57 8 65 10 8 2 35 7 60 10 25 3 52 8 60 10 8 2 29 7 45 9 17 3 62 12 100
21 39 8 73 15 78 15 4 0 7 152 7 337 l0 337 39 81 c22 44 52 94 68 109 124
126 338 220 639 281 11 3 45 7 75 10 30 4 60 8 67 10 17 6 220 18 327 19 50 1
89 4 89 9 -1 4 -5 33 -9 65 -35 292 -230 681 -484 969 -74 85 -115 126 -216
217 -49 44 -209 156 -224 156 -6 0 -34 -18 -63 -40 -161 -122 -561 -242 -923
-276 -27 -2 -59 -6 -70 -9 -125 -26 -882 -26 -1010 0 -11 3 -42 7 -70 9 -372
37 -765 155 -928 280 -26 20 -51 36 -56 36 -43 0 -406 -313 -475 -410 -18 -24
-18 -23 -11 75 6 101 8 113 20 195 10 73 16 102 26 150 6 25 12 52 14 60 70
326 251 706 476 998 66 87 235 257 333 336 290 236 614 376 971 423 114 14
520 7 665 -12 19 -3 55 -7 80 -10 25 -3 98 -16 162 -30 579 -120 931 -435
1145 -1024 32 -88 79 -254 89 -311 3 -14 7 -33 10 -42 3 -9 7 -27 9 -40 3 -13
9 -43 14 -68 6 -25 13 -63 16 -85 3 -22 13 -85 21 -140 l15 -100 68 -70 c93
-96 126 -133 164 -182 18 -23 36 -43 40 -43 5 0 6 3 4 8 -3 4 -8 51 -12 106
-4 54 -8 108 -10 120 -2 11 -6 46 -10 76 -19 190 -65 440 -106 590 -11 41 -22
83 -25 94 -2 10 -22 73 -45 140 -198 584 -559 967 -1073 1141 -85 28 -215 64
-253 70 -15 2 -66 11 -113 20 -47 8 -110 18 -140 21 -30 3 -68 7 -85 9 -62 9
-490 25 -498 19z"/>
<path d="M2769 5291 c0 -69 0 -147 1 -173 1 -46 0 -48 -27 -49 -15 0 -35 -2
-44 -4 -8 -1 -42 -6 -75 -9 -64 -8 -115 -15 -154 -22 -14 -2 -47 -7 -75 -10
-27 -4 -53 -8 -56 -10 -4 -2 -24 -6 -45 -10 -22 -3 -82 -15 -134 -26 -52 -10
-106 -22 -119 -24 -12 -3 -53 -12 -90 -20 -36 -9 -76 -18 -89 -20 -98 -19
-266 -86 -330 -133 l-43 -32 28 -23 c83 -70 273 -144 483 -190 148 -32 166
-35 220 -41 25 -3 72 -10 105 -15 57 -9 95 -12 300 -26 93 -6 462 -6 550 0
115 8 231 18 245 21 8 1 40 6 70 10 83 10 110 14 169 26 30 6 64 12 75 14 12
1 59 13 106 25 47 12 90 23 95 25 6 1 17 5 25 8 8 4 59 22 114 42 105 37 170
70 199 103 19 20 18 21 -22 46 -154 97 -546 207 -936 261 -22 3 -50 8 -62 10
-11 3 -50 7 -85 10 -34 3 -72 7 -83 10 -11 2 -32 4 -46 4 l-25 1 1 158 c0 86
-1 164 -3 174 -3 14 -20 16 -123 16 l-119 -1 -1 -126z"/>
<path d="M6140 4915 c-96 -25 -165 -72 -179 -123 -9 -30 -8 -31 62 -62 151
-67 329 -90 442 -56 63 19 145 71 145 91 0 40 -102 100 -248 145 -72 23 -148
24 -222 5z"/>
<path d="M5704 4502 c-136 -128 -305 -252 -432 -316 l-52 -26 38 -53 c188
-257 341 -639 368 -920 4 -37 10 -69 13 -71 3 -2 24 -7 46 -10 22 -4 67 -11
100 -16 33 -6 63 -10 67 -10 11 0 114 171 172 285 71 142 143 321 250 620 94
265 125 351 149 408 9 20 13 38 9 38 -4 1 -55 0 -113 -1 -163 -3 -319 35 -470
113 l-65 34 -80 -75z"/>
<path d="M5168 2885 c-2 -2 -35 -6 -75 -9 -39 -3 -78 -8 -85 -11 -7 -2 -31 -7
-53 -9 -97 -12 -349 -73 -443 -108 -109 -40 -182 -107 -182 -165 0 -66 90
-143 239 -203 61 -25 234 -73 302 -85 150 -25 226 -30 424 -30 238 0 316 7
520 49 74 16 204 61 276 97 156 78 196 126 163 194 -42 89 -246 189 -474 234
-91 18 -93 19 -155 26 -33 4 -71 9 -85 12 -29 5 -367 13 -372 8z"/>
<path d="M4326 1713 c1 -548 2 -557 55 -644 67 -108 236 -217 424 -272 354
-105 827 -83 1129 53 131 58 246 152 288 233 44 87 45 101 47 631 1 278 0 506
-2 506 -2 0 -34 -15 -73 -34 -143 -69 -292 -111 -539 -151 -119 -19 -459 -26
-605 -11 -144 14 -166 17 -297 46 -154 35 -228 58 -342 111 -46 22 -84 39 -85
39 0 0 0 -228 0 -507z"/>
<path d="M2530 1394 c-192 -39 -328 -49 -635 -49 -219 1 -329 5 -555 20 -295
19 -503 23 -615 11 -75 -8 -174 -31 -221 -51 l-35 -15 23 -22 c138 -136 341
-259 531 -323 l77 -25 47 24 c97 49 165 67 348 91 28 4 246 9 485 11 239 2
449 5 465 6 42 4 78 46 130 153 49 100 87 196 77 194 -4 -1 -59 -12 -122 -25z"/>
<path d="M3335 1050 c-44 -22 -114 -51 -155 -66 -41 -14 -84 -30 -95 -35 -74
-32 -366 -92 -550 -113 -82 -10 -330 -17 -690 -21 -333 -3 -378 -6 -460 -27
-22 -5 -49 -12 -60 -14 -36 -7 -143 -66 -170 -94 l-26 -27 48 -30 c148 -93
336 -171 503 -208 162 -36 278 -49 435 -49 339 0 789 123 1015 277 101 70 194
177 235 273 29 67 64 174 57 173 -4 0 -43 -18 -87 -39z"/>
</g>
</svg>
