<?xml version="1.0" encoding="utf-8"?>
<!-- Generator: Adobe Illustrator 19.0.0, SVG Export Plug-In . SVG Version: 6.00 Build 0)  -->
<svg version="1.2" baseProfile="tiny" id="Layer_1" xmlns="http://www.w3.org/2000/svg" xmlns:xlink="http://www.w3.org/1999/xlink"
	 x="0px" y="0px" viewBox="-223 25 512 512" xml:space="preserve">
<path fill="#FFFFFF" d="M44,210.5H32.4v103l0,0L48.6,326h86c0.8,0,1.5-0.7,1.5-1.5v-22c0-0.8-0.7-1.5-1.5-1.5H47
	c-0.8,0-1.5-0.7-1.5-1.5V212C45.5,211.2,44.8,210.5,44,210.5z"/>
<g>
	<path fill="#FFFFFF" d="M207.9,179.9l19.4-19c8.7-8.6,10.6-20.8,4-27.2l-20.4-19.7c-6.6-6.4-19.1-4.6-27.9,4.1l-20.1,19.7h0
		C179.8,149.6,195,163.8,207.9,179.9z"/>
	<path fill="#FFFFFF" d="M34,97c22.6,0,45.1,3.4,66.7,10.1V81.4c0-16.7-13.5-30.3-30.3-30.4H-2.3c-16.8,0-30.4,13.6-30.4,30.4v25.8
		C-11.1,100.4,11.4,97,34,97L34,97z"/>
	<path fill="#FFFFFF" d="M-139.6,179.5L-139.6,179.5c12.7-15.8,27.6-29.7,44.1-41.4l-20-19.7c-8.8-8.6-21.2-10.6-27.7-4.3l-20,19.4
		c-6.5,6.3-4.6,18.3,4.2,27L-139.6,179.5z"/>
	<path fill="#FFFFFF" d="M34,116.1L34,116.1c-111.5,0-202.1,88.6-202.1,197.5C-168.1,422.4-77.5,511,34,511
		c111.5,0,202.1-88.6,202.1-197.5C236.1,204.7,145.5,116.1,34,116.1z M34,492c-100.9,0-183.1-80-183.1-178.4
		c0-98.4,82.1-178.4,183.1-178.4s183.1,80,183.1,178.4C217.1,411.9,134.9,492,34,492z"/>
	<path fill="#FFFFFF" d="M48,326c-0.8,0-1.5,0.7-1.5,1.5v87.5c0,0.8-0.7,1.5-1.5,1.5H23c-0.8,0-1.5-0.7-1.5-1.5v-87.5
		c0-0.8-0.7-1.5-1.5-1.5h-87.5c-0.8,0-1.5-0.7-1.5-1.5v-22c0-0.8,0.7-1.5,1.5-1.5H20c0.8,0,1.5-0.7,1.5-1.5V212
		c0-0.8,0.7-1.5,1.5-1.5h10.4v-56.4C-56.8,154.5-130,225.9-130,313.5c0,87.9,73.6,159.4,164,159.4c49.5,0.2,96.4-21.8,128-59.8
		L49.6,326H48z"/>
</g>
</svg>
