<?xml version="1.0" encoding="UTF-8"?>
<svg baseProfile="tiny" version="1.2" viewBox="0 0 500 500" xml:space="preserve" xmlns="http://www.w3.org/2000/svg">
<path d="m0 37.4s11.8 10.6 29.4 7.7 14.2 3.6 55.5-24.1 55.1-11.7 62-4.4 20.1 23.6 32.8 29c12.8 5.3 27.7-3.1 38.3-12.2 9.6-10.4 21.4-18.9 25.8-20.3 4.4-1.5 14-2.5 28.9 13.2 14.2 15.8 18.7 16.8 22.6 18.1 3.6 0.7 20.8-1.9 27.7-6.6 7.4-4.1 19.7 8.4 24.1 9.5s8 5.9 15.7 7.3c7.7 1.5 28.4-19.6 41.6-26.6 13.3-7.6 28.8-12 38.3-12.8s17.2 2.2 31.8 11.7 21.6 11.9 25.3 10.6v462.6h-499.8v-462.7z" fill="#fff"/>
</svg>
